<svg width="22" height="22" viewBox="0 0 22 22" fill="none" xmlns="http://www.w3.org/2000/svg">
<g opacity="1" clip-path="url(#clip0_52_34)">
<path d="M15.1259 12.6494C15.879 12.7762 16.6485 12.77 17.3994 12.631C17.6911 12.5673 17.9952 12.5917 18.273 12.7012C18.5509 12.8106 18.7899 13.0001 18.9599 13.2456C19.1298 13.4912 19.2229 13.7816 19.2275 14.0802C19.232 14.3788 19.1478 14.672 18.9854 14.9225C18.7003 15.336 18.3781 15.7226 18.0228 16.0775C17.6234 16.475 17.1876 16.834 16.721 17.1499" stroke="#010F18" stroke-width="1.5" stroke-linecap="round" stroke-linejoin="round"/>
<path d="M4.64764 5.62815C4.97606 5.06715 5.36996 4.54715 5.82106 4.07908C6.19314 3.69611 6.59805 3.34647 7.03115 3.03417C7.28033 2.86298 7.57507 2.77036 7.87738 2.76825C8.17968 2.76613 8.47569 2.85462 8.72724 3.02229C8.97879 3.18997 9.17435 3.42915 9.2887 3.709C9.40305 3.98885 9.43096 4.29654 9.36882 4.5924C9.20819 5.49157 9.22688 6.41363 9.42382 7.30556" stroke="#010F18" stroke-width="1.5" stroke-linecap="round" stroke-linejoin="round"/>
<path d="M11.1691 9.37024L12.6288 10.8308C12.8669 11.0692 13.0304 11.3717 13.0993 11.7014C13.1683 12.0312 13.1396 12.3739 13.0169 12.6877L10.8808 18.15C10.7969 18.3644 10.6712 18.56 10.5111 18.7254C10.3509 18.8909 10.1596 19.0228 9.94801 19.1137C9.73647 19.2046 9.50899 19.2526 9.27877 19.2548C9.04854 19.2571 8.82016 19.2136 8.60687 19.1269C7.31802 18.6018 6.14725 17.8241 5.16346 16.8396C4.17968 15.8552 3.40275 14.6839 2.87841 13.3947C2.79173 13.1814 2.74825 12.9529 2.75048 12.7227C2.75271 12.4924 2.80062 12.2648 2.89142 12.0532C2.98222 11.8415 3.11411 11.65 3.27946 11.4897C3.4448 11.3294 3.64031 11.2035 3.85466 11.1193L9.31347 8.98183C9.62704 8.85905 9.96961 8.8304 10.2992 8.89939C10.6288 8.96838 10.9311 9.13201 11.1691 9.37024V9.37024Z" stroke="#010F18" stroke-width="1.5" stroke-linecap="round" stroke-linejoin="round"/>
<path d="M13.1091 11.7878C13.3689 11.8669 13.6362 11.9191 13.9067 11.9436C14.2352 11.9789 14.5468 12.1072 14.805 12.3134C15.0631 12.5196 15.2572 12.7951 15.3643 13.1077L16.6935 17.0399C16.7633 17.2505 16.7499 17.4798 16.6562 17.6808C16.5625 17.8819 16.3955 18.0396 16.1893 18.1215C14.4196 18.8531 12.4692 19.0289 10.5972 18.6257" stroke="#010F18" stroke-width="1.5" stroke-linecap="round" stroke-linejoin="round"/>
<path d="M3.38255 11.4028C3.01391 9.671 3.13775 7.87059 3.74005 6.20561C3.81433 5.9881 3.97191 5.80897 4.17818 5.70756C4.38444 5.60616 4.62252 5.59077 4.84013 5.66478L8.94713 7.05806C9.2385 7.15017 9.49921 7.32007 9.70115 7.54944C9.90308 7.7788 10.0386 8.05894 10.093 8.35964C10.1184 8.54062 10.1614 8.71869 10.2214 8.89131" stroke="#010F18" stroke-width="1.5" stroke-linecap="round" stroke-linejoin="round"/>
</g>
<defs>
<clipPath id="clip0_52_34">
<rect width="22" height="22" fill="white"/>
</clipPath>
</defs>
</svg>
