<svg width="22" height="22" viewBox="0 0 22 22" fill="none" xmlns="http://www.w3.org/2000/svg">
<g opacity="1" clip-path="url(#clip0_52_11)">
<path d="M9.9825 5.005C10.3791 4.35054 10.9297 3.80295 11.5864 3.40993C12.243 3.0169 12.9858 2.79035 13.75 2.75C16.7842 2.75 19.25 6.44417 19.25 11C19.25 14.5475 16.7842 17.4167 13.75 17.4167C13.2523 17.4151 12.7578 17.3378 12.2833 17.1875" stroke="#010F18" stroke-width="1.3" stroke-linecap="round" stroke-linejoin="round"/>
<path d="M2.75 12.8333C2.75 16.3772 5.21243 19.25 8.25 19.25C11.2876 19.25 13.75 16.3772 13.75 12.8333C13.75 8.27698 11.2876 4.58333 8.25 4.58333C5.21243 4.58333 2.75 8.27698 2.75 12.8333Z" stroke="#010F18" stroke-width="1.3" stroke-linecap="round" stroke-linejoin="round"/>
<path d="M8.25 15.5833C9.46503 15.5833 10.45 14.506 10.45 13.1771C10.45 11.8481 9.46503 10.7708 8.25 10.7708C7.03498 10.7708 6.05 11.8481 6.05 13.1771C6.05 14.506 7.03498 15.5833 8.25 15.5833Z" stroke="#010F18" stroke-width="1.3" stroke-linecap="round" stroke-linejoin="round"/>
</g>
<defs>
<clipPath id="clip0_52_11">
<rect width="22" height="22" fill="white"/>
</clipPath>
</defs>
</svg>
