<svg width="30" height="30" viewBox="0 0 30 30" fill="none" xmlns="http://www.w3.org/2000/svg">
<path fill-rule="evenodd" clip-rule="evenodd" d="M12.5 1.5625H12.4575C10.7437 1.5625 9.39875 1.5625 8.31875 1.65C7.21875 1.74125 6.31 1.92625 5.4875 2.34625C4.13498 3.03536 3.03536 4.13498 2.34625 5.4875C1.92625 6.31 1.74125 7.21875 1.65125 8.31875C1.5625 9.39875 1.5625 10.7437 1.5625 12.4575V17.5425C1.5625 19.2563 1.5625 20.6012 1.65 21.6812C1.74125 22.7812 1.92625 23.69 2.34625 24.5125C3.03536 25.865 4.13498 26.9646 5.4875 27.6537C6.31 28.0737 7.21875 28.26 8.31875 28.3488C9.39875 28.4375 10.7437 28.4375 12.4575 28.4375H17.5425C19.2563 28.4375 20.6012 28.4375 21.6812 28.35C22.7812 28.26 23.69 28.0737 24.5125 27.6537C25.865 26.9646 26.9646 25.865 27.6537 24.5125C28.0737 23.69 28.26 22.7812 28.3488 21.6812C28.4375 20.6012 28.4375 19.2563 28.4375 17.5425V12.4575C28.4375 10.7437 28.4375 9.39875 28.35 8.31875C28.26 7.21875 28.0737 6.31 27.6537 5.4875C26.9646 4.13498 25.865 3.03536 24.5125 2.34625C23.69 1.92625 22.7812 1.74125 21.6812 1.65125C20.6012 1.5625 19.2563 1.5625 17.5425 1.5625H12.5ZM6.3375 4.01625C6.8525 3.75375 7.4875 3.6 8.47125 3.52C9.46625 3.43875 10.7338 3.4375 12.5 3.4375H17.5C19.265 3.4375 20.5337 3.4375 21.5287 3.52C22.5125 3.6 23.1475 3.755 23.6625 4.01625C24.6621 4.52587 25.4747 5.33888 25.9838 6.33875C26.2463 6.8525 26.4 7.4875 26.48 8.47125C26.5613 9.46625 26.5625 10.7338 26.5625 12.5V17.5C26.5625 19.265 26.5625 20.5337 26.48 21.5287C26.4 22.5125 26.245 23.1475 25.9838 23.6625C25.4745 24.6619 24.6619 25.4745 23.6625 25.9838C23.1475 26.2463 22.5125 26.4 21.5287 26.48C20.5337 26.5613 19.2663 26.5625 17.5 26.5625H12.5C10.7338 26.5625 9.46625 26.5625 8.47125 26.48C7.4875 26.4 6.8525 26.245 6.33875 25.9838C5.33888 25.4747 4.52587 24.6621 4.01625 23.6625C3.75375 23.1475 3.6 22.5125 3.52 21.5287C3.43875 20.5337 3.4375 19.2663 3.4375 17.5V12.5C3.4375 10.735 3.4375 9.46625 3.52 8.47125C3.6 7.4875 3.755 6.8525 4.01625 6.33875C4.52565 5.33869 5.33869 4.52565 6.33875 4.01625H6.3375ZM9.6875 7.5C9.68748 7.32348 9.63763 7.15056 9.54369 7.00112C9.44974 6.85168 9.31552 6.7318 9.15645 6.65528C8.99739 6.57875 8.81995 6.54868 8.64456 6.56853C8.46916 6.58839 8.30293 6.65735 8.165 6.7675L6.915 7.7675C6.74199 7.90585 6.62356 8.10099 6.5807 8.31833C6.53785 8.53566 6.57334 8.76116 6.68088 8.95482C6.78842 9.14849 6.96107 9.29782 7.16821 9.37633C7.37535 9.45485 7.60361 9.45747 7.8125 9.38375V11.5625H7.5C7.25136 11.5625 7.0129 11.6613 6.83709 11.8371C6.66127 12.0129 6.5625 12.2514 6.5625 12.5C6.5625 12.7486 6.66127 12.9871 6.83709 13.1629C7.0129 13.3387 7.25136 13.4375 7.5 13.4375H10C10.2486 13.4375 10.4871 13.3387 10.6629 13.1629C10.8387 12.9871 10.9375 12.7486 10.9375 12.5C10.9375 12.2514 10.8387 12.0129 10.6629 11.8371C10.4871 11.6613 10.2486 11.5625 10 11.5625H9.6875V7.5ZM6.5625 16.25C6.5625 16.0014 6.66127 15.7629 6.83709 15.5871C7.0129 15.4113 7.25136 15.3125 7.5 15.3125H10C10.2486 15.3125 10.4871 15.4113 10.6629 15.5871C10.8387 15.7629 10.9375 16.0014 10.9375 16.25V18.75C10.9375 18.9986 10.8387 19.2371 10.6629 19.4129C10.4871 19.5887 10.2486 19.6875 10 19.6875H8.4375V20.3125H10C10.2486 20.3125 10.4871 20.4113 10.6629 20.5871C10.8387 20.7629 10.9375 21.0014 10.9375 21.25C10.9375 21.4986 10.8387 21.7371 10.6629 21.9129C10.4871 22.0887 10.2486 22.1875 10 22.1875H7.5C7.25136 22.1875 7.0129 22.0887 6.83709 21.9129C6.66127 21.7371 6.5625 21.4986 6.5625 21.25V18.75C6.5625 18.5014 6.66127 18.2629 6.83709 18.0871C7.0129 17.9113 7.25136 17.8125 7.5 17.8125H9.0625V17.1875H7.5C7.25136 17.1875 7.0129 17.0887 6.83709 16.9129C6.66127 16.7371 6.5625 16.4986 6.5625 16.25ZM13.75 20.3125C13.5014 20.3125 13.2629 20.4113 13.0871 20.5871C12.9113 20.7629 12.8125 21.0014 12.8125 21.25C12.8125 21.4986 12.9113 21.7371 13.0871 21.9129C13.2629 22.0887 13.5014 22.1875 13.75 22.1875H22.5C22.7486 22.1875 22.9871 22.0887 23.1629 21.9129C23.3387 21.7371 23.4375 21.4986 23.4375 21.25C23.4375 21.0014 23.3387 20.7629 23.1629 20.5871C22.9871 20.4113 22.7486 20.3125 22.5 20.3125H13.75ZM12.8125 15C12.8125 14.7514 12.9113 14.5129 13.0871 14.3371C13.2629 14.1613 13.5014 14.0625 13.75 14.0625H22.5C22.7486 14.0625 22.9871 14.1613 23.1629 14.3371C23.3387 14.5129 23.4375 14.7514 23.4375 15C23.4375 15.2486 23.3387 15.4871 23.1629 15.6629C22.9871 15.8387 22.7486 15.9375 22.5 15.9375H13.75C13.5014 15.9375 13.2629 15.8387 13.0871 15.6629C12.9113 15.4871 12.8125 15.2486 12.8125 15ZM13.75 7.8125C13.5014 7.8125 13.2629 7.91127 13.0871 8.08709C12.9113 8.2629 12.8125 8.50136 12.8125 8.75C12.8125 8.99864 12.9113 9.2371 13.0871 9.41291C13.2629 9.58873 13.5014 9.6875 13.75 9.6875H22.5C22.7486 9.6875 22.9871 9.58873 23.1629 9.41291C23.3387 9.2371 23.4375 8.99864 23.4375 8.75C23.4375 8.50136 23.3387 8.2629 23.1629 8.08709C22.9871 7.91127 22.7486 7.8125 22.5 7.8125H13.75Z" fill="white"/>
</svg>
