<svg width="16" height="16" viewBox="0 0 16 16" fill="none" xmlns="http://www.w3.org/2000/svg">
<g opacity="1" clip-path="url(#clip0_52_106)">
<path d="M4 6V12.6667C4 13.0203 4.14048 13.3594 4.39052 13.6095C4.64057 13.8595 4.97971 14 5.33333 14H10.6667C11.0203 14 11.3594 13.8595 11.6095 13.6095C11.8595 13.3594 12 13.0203 12 12.6667V6M9.33333 6.66667V11.3333M6.66667 6.66667V11.3333M3 4H13M5.33333 4L5.696 2.912C5.78446 2.64639 5.95429 2.41537 6.1814 2.25168C6.40851 2.08799 6.68138 1.99993 6.96133 2H9.03867C9.31885 1.99965 9.59202 2.08758 9.81939 2.25129C10.0468 2.415 10.2168 2.64618 10.3053 2.912L10.6667 4" stroke="#010F18" stroke-width="1.3" stroke-linecap="round" stroke-linejoin="round"/>
</g>
<defs>
<clipPath id="clip0_52_106">
<rect width="16" height="16" fill="white"/>
</clipPath>
</defs>
</svg>
