<svg width="22" height="22" viewBox="0 0 22 22" fill="none" xmlns="http://www.w3.org/2000/svg">
<g clip-path="url(#clip0_52_933)">
<path d="M1.83334 16.5H20.1667" stroke="black" stroke-width="1.5" stroke-linecap="round" stroke-linejoin="round"/>
<path d="M2.75 16.5L3.2488 17.9964C3.37048 18.3615 3.60394 18.679 3.91609 18.9039C4.22824 19.1289 4.60328 19.25 4.98806 19.25H17.012C17.3968 19.25 17.7718 19.1289 18.0839 18.9039C18.3961 18.679 18.6296 18.3615 18.7512 17.9964L19.25 16.5" stroke="black" stroke-width="1.5" stroke-linecap="round" stroke-linejoin="round"/>
<path d="M10.6378 12.1411C10.2239 11.539 10.0477 10.8048 10.1434 10.0803C10.239 9.3559 10.5996 8.69258 11.1556 8.21843C12.9309 6.60797 15.2258 6.2311 16.1848 7.19018C17.1879 8.19329 16.7296 10.6579 14.9268 12.4607C14.638 12.7493 14.2905 12.9722 13.9078 13.1143C13.525 13.2563 13.1162 13.3142 12.7091 13.2838C12.302 13.2535 11.9062 13.1357 11.5487 12.9385C11.1913 12.7413 10.8806 12.4693 10.6378 12.1411V12.1411Z" stroke="black" stroke-width="1.5" stroke-linecap="round" stroke-linejoin="round"/>
<path d="M18.9017 4.69333C19.236 4.69333 19.5565 4.82613 19.7929 5.0625C20.0293 5.29888 20.1621 5.61947 20.1621 5.95375C20.1621 6.28803 20.0293 6.60863 19.7929 6.845C19.5565 7.08137 19.236 7.21417 18.9017 7.21417H18.0767C17.9554 7.21463 17.8354 7.23918 17.7237 7.28639C17.6119 7.3336 17.5107 7.40252 17.4258 7.48917L16.6742 8.23167C16.6272 7.8406 16.4571 7.47462 16.1883 7.18667C15.9004 6.91793 15.5344 6.74778 15.1433 6.70083L15.8858 5.94917C15.9725 5.86429 16.0414 5.76306 16.0886 5.65133C16.1358 5.53961 16.1604 5.41962 16.1608 5.29833V4.47333C16.1608 4.13905 16.2936 3.81846 16.53 3.58208C16.7664 3.34571 17.087 3.21292 17.4212 3.21292C17.7555 3.21292 18.0761 3.34571 18.3125 3.58208C18.5489 3.81846 18.6817 4.13905 18.6817 4.47333V4.69333H18.9017Z" stroke="black" stroke-width="1.5" stroke-linecap="round" stroke-linejoin="round"/>
<path d="M16.5367 9.80833C17.6373 10.8528 18.2827 12.2885 18.3333 13.805V14.2083C18.3331 14.8161 18.0916 15.3988 17.6619 15.8285C17.2321 16.2583 16.6494 16.4998 16.0417 16.5H5.95833C5.35061 16.4998 4.76785 16.2583 4.33812 15.8285C3.9084 15.3988 3.66689 14.8161 3.66666 14.2083V13.805C3.66666 10.23 7.69083 7.33333 11 7.33333C11.4002 7.33301 11.7994 7.37293 12.1917 7.4525" stroke="black" stroke-width="1.5" stroke-linecap="round" stroke-linejoin="round"/>
</g>
<defs>
<clipPath id="clip0_52_933">
<rect width="22" height="22" fill="white"/>
</clipPath>
</defs>
</svg>
