<svg width="22" height="22" viewBox="0 0 22 22" fill="none" xmlns="http://www.w3.org/2000/svg">
<g opacity="1" clip-path="url(#clip0_52_953)">
<path d="M8.25 6.41666C8.25 5.68731 8.53973 4.98784 9.05546 4.47211C9.57118 3.95639 10.2707 3.66666 11 3.66666C11.7293 3.66666 12.4288 3.95639 12.9445 4.47211C13.4603 4.98784 13.75 5.68731 13.75 6.41666C13.9306 6.23609 14.1449 6.09285 14.3809 5.99513C14.6168 5.89741 14.8696 5.84711 15.125 5.84711C15.3804 5.84711 15.6332 5.89741 15.8691 5.99513C16.1051 6.09285 16.3194 6.23609 16.5 6.41666" stroke="#010F18" stroke-width="1.5" stroke-linecap="round" stroke-linejoin="round"/>
<path d="M8.25 11.9167C8.25 11.1873 8.53973 10.4878 9.05546 9.97211C9.57118 9.45639 10.2707 9.16666 11 9.16666C11.7293 9.16666 12.4288 9.45639 12.9445 9.97211C13.4603 10.4878 13.75 11.1873 13.75 11.9167" stroke="#010F18" stroke-width="1.5" stroke-linecap="round" stroke-linejoin="round"/>
<path d="M11 9.16666C10.9999 8.49361 10.753 7.84397 10.3061 7.34072C9.8592 6.83748 9.24327 6.51558 8.57495 6.43597C7.90663 6.35636 7.23232 6.52457 6.6797 6.90875C6.12707 7.29293 5.7345 7.86641 5.57631 8.5206C5.5612 8.58352 5.53226 8.64228 5.49158 8.69261C5.45091 8.74294 5.39954 8.78358 5.34119 8.81156C5.28284 8.83954 5.219 8.85417 5.15429 8.85439C5.08958 8.8546 5.02563 8.84039 4.96711 8.81279C4.62265 8.67302 4.24046 8.65666 3.88532 8.76648C3.53018 8.8763 3.22394 9.10554 3.01851 9.41535C2.81308 9.72516 2.72109 10.0965 2.75815 10.4664C2.79521 10.8362 2.95902 11.1819 3.22183 11.4448L3.84578 12.0688" stroke="#010F18" stroke-width="1.5" stroke-linecap="round" stroke-linejoin="round"/>
<path d="M16.5 6.41666C16.7917 6.70565 16.9836 7.08012 17.0479 7.48564C17.1121 7.89116 17.0455 8.30662 16.8575 8.67166" stroke="#010F18" stroke-width="1.5" stroke-linecap="round" stroke-linejoin="round"/>
<path d="M18.15 17.05C17.6377 17.7331 16.9734 18.2875 16.2097 18.6693C15.446 19.0512 14.6038 19.25 13.75 19.25H8.25C7.39615 19.25 6.55403 19.0512 5.79033 18.6693C5.02662 18.2875 4.36231 17.7331 3.85 17.05V17.05C3.13598 16.098 2.75 14.94 2.75 13.75V13.75C2.75 13.2638 2.94315 12.7974 3.28697 12.4536C3.63079 12.1098 4.0971 11.9167 4.58333 11.9167H17.4167C17.9029 11.9167 18.3692 12.1098 18.713 12.4536C19.0568 12.7974 19.25 13.2638 19.25 13.75C19.25 14.94 18.864 16.098 18.15 17.05V17.05Z" stroke="#010F18" stroke-width="1.5" stroke-linecap="round" stroke-linejoin="round"/>
<path d="M18.3177 12.1625C18.8617 11.4171 19.1555 10.5186 19.157 9.59579V9.04579C19.157 8.89992 19.0991 8.76002 18.9959 8.65688C18.8928 8.55373 18.7529 8.49579 18.607 8.49579H18.0569C17.0613 8.49676 16.0955 8.83573 15.3176 9.45719C14.5397 10.0787 13.9958 10.9458 13.7751 11.9167" stroke="#010F18" stroke-width="1.5" stroke-linecap="round" stroke-linejoin="round"/>
</g>
<defs>
<clipPath id="clip0_52_953">
<rect width="22" height="22" fill="white"/>
</clipPath>
</defs>
</svg>
